<svg width="10" height="17" viewBox="0 0 10 17" fill="none" xmlns="http://www.w3.org/2000/svg">
<path d="M9.46774 11.7167L9.21506 11.4644C9.04757 11.2972 8.77622 11.2974 8.60895 11.4648L5.63103 14.4645L5.62103 1.03995C5.62085 0.803268 5.42881 0.611518 5.19213 0.611694L4.83499 0.611961C4.59831 0.612137 4.40656 0.804173 4.40674 1.04085L4.41674 14.4654L1.43436 11.4702C1.26687 11.303 0.995516 11.3032 0.828248 11.4706L0.575935 11.7234C0.408702 11.8908 0.408905 12.1622 0.576387 12.3294L4.72236 16.4865C4.88984 16.6538 5.1612 16.6536 5.32846 16.4861L9.46823 12.3228C9.63546 12.1553 9.63526 11.884 9.46774 11.7167Z" fill="#212121"/>
</svg>
