<svg width="9" height="17" viewBox="0 0 9 17" fill="none" xmlns="http://www.w3.org/2000/svg">
<g clip-path="url(#clip0)">
<path d="M8.92231 12.0656L7.02411 10.1703C6.98815 10.1344 6.94126 10.1157 6.89126 10.1157L6.68502 10.1158C7.17676 9.54519 7.47463 8.80282 7.47403 7.99036C7.47269 6.19513 6.01699 4.7416 4.22176 4.74294C2.42654 4.74428 0.973008 6.19998 0.974346 7.9952C0.975684 9.79043 2.43138 11.244 4.22661 11.2426C5.03907 11.242 5.781 10.943 6.35091 10.4505L6.35107 10.6567C6.35111 10.7067 6.37145 10.7535 6.40585 10.7895L8.30405 12.6848C8.37754 12.7582 8.49628 12.7581 8.56966 12.6846L8.9225 12.3313C8.99588 12.2578 8.99579 12.139 8.92231 12.0656ZM4.22605 10.4927C2.84487 10.4937 1.72534 9.37582 1.72431 7.99464C1.72328 6.61346 2.84114 5.49393 4.22232 5.4929C5.60351 5.49187 6.72303 6.60973 6.72406 7.99092C6.72509 9.3721 5.60723 10.4916 4.22605 10.4927Z" fill="#666666"/>
</g>
<defs>
<clipPath id="clip0">
<rect width="8" height="16" fill="white" transform="translate(0.968994 0.745361) rotate(-0.0426994)"/>
</clipPath>
</defs>
</svg>
