<svg width="25" height="25" viewBox="0 0 25 25" fill="none" xmlns="http://www.w3.org/2000/svg">
<path d="M15.3053 12.83C15.3065 14.4079 14.0282 15.6881 12.4503 15.6893C10.8723 15.6904 9.59218 14.4122 9.59101 12.8342C9.58983 11.2563 10.8681 9.97615 12.446 9.97498C14.024 9.9738 15.3041 11.252 15.3053 12.83Z" fill="#212121"/>
<path fill-rule="evenodd" clip-rule="evenodd" d="M12.4571 24.8321C18.5025 24.8276 23.5004 20.3535 24.3279 14.5376L17.2996 14.5428C16.5951 16.5408 14.6912 17.9733 12.452 17.975C10.2127 17.9766 8.3067 16.547 7.59921 14.55L0.570953 14.5553C1.40711 20.37 6.41171 24.8366 12.4571 24.8321ZM7.59665 11.1214L0.568398 11.1267C1.39589 5.31071 6.39383 0.836627 12.4392 0.832122C18.4846 0.827616 23.4892 5.29424 24.3253 11.109L17.2971 11.1142C16.5896 9.11727 14.6835 7.68759 12.4443 7.68926C10.2051 7.69093 8.30117 9.12345 7.59665 11.1214ZM15.3053 12.83C15.3065 14.4079 14.0282 15.6881 12.4503 15.6893C10.8723 15.6904 9.59218 14.4122 9.59101 12.8342C9.58983 11.2563 10.8681 9.97615 12.446 9.97498C14.024 9.9738 15.3041 11.252 15.3053 12.83Z" fill="#212121"/>
</svg>
